PathFileType	3	(X/Y/Z)	RCH0000002 BBF 03.c3d
DataRate	CameraRate	NumFrames	NumMarkers	Units	OrigDataRate	OrigDataStartFrame	OrigNumFrames
100.0	100.0	15	23	mm	100.0	402	376
Frame#	Time	T2			T10			LASI			LPSI			RPSI			LANK			LMED			LTOE			RPAT			RANK			RMED			RHEE			RTOE			MAN			LPAT			RKNE			LKNE			RASI			LHEE			RTHI			LTHI			RTIB			LTIB			
		X1	Y1	Z1	X2	Y2	Z2	X3	Y3	Z3	X4	Y4	Z4	X5	Y5	Z5	X6	Y6	Z6	X7	Y7	Z7	X8	Y8	Z8	X9	Y9	Z9	X10	Y10	Z10	X11	Y11	Z11	X12	Y12	Z12	X13	Y13	Z13	X14	Y14	Z14	X15	Y15	Z15	X16	Y16	Z16	X17	Y17	Z17	X18	Y18	Z18	X19	Y19	Z19	X20	Y20	Z20	X21	Y21	Z21	X22	Y22	Z22	X23	Y23	Z23	

402	4.010	41.28977	22.29421	976.26222	47.27831	11.34879	787.51795	157.56975	59.68030	629.54125	40.72095	32.71429	686.68407	35.54689	-35.54398	706.67231	217.88276	93.42177	97.91962	226.37328	22.76978	106.12651	269.87517	62.95513	95.08553	53.16669	-72.86871	375.85531	-91.23044	-124.08376	93.51994	-103.78666	-58.46801	112.60295	-132.98440	-100.16821	136.30300	-52.87299	-81.55058	75.24567	172.09017	34.30628	942.02349	271.51126	17.02371	419.62493	2.28457	-128.14777	358.64553	243.75718	74.55172	365.94423	137.83671	-112.73695	667.89574	180.26113	47.81975	119.50104	57.65042	-193.27883	458.81376	183.14979	144.63992	475.12259	-43.02734	-194.48685	243.43329	229.83065	145.25109	258.57419	
403	4.020	50.50273	24.86655	973.96829	57.90151	12.60278	785.44141	169.49366	59.50817	627.78699	52.26834	33.72117	684.69950	46.51471	-34.54410	704.77273	232.75415	94.14202	93.73084	239.91700	23.40386	101.91284	284.37029	63.05740	91.63363	62.06412	-72.99827	374.11060	-88.44204	-124.59428	94.55882	-100.44247	-58.95395	113.89339	-129.08005	-100.57030	138.39096	-50.70454	-81.93545	75.07112	181.51025	36.41565	940.45142	280.80412	15.05181	415.86010	10.54243	-127.93029	357.89946	254.00848	73.62021	362.60309	148.39284	-112.68656	666.58575	193.92834	48.88592	114.60132	66.10188	-193.11981	457.92840	195.49887	143.86541	472.70627	-37.16756	-194.51869	243.70898	242.83380	145.05915	254.94819	
404	4.030	59.79656	27.55019	971.59731	68.89557	13.77139	783.35675	181.53170	59.47436	626.14746	64.04846	34.63644	682.90540	57.79897	-33.67117	702.91003	245.20844	94.81938	89.57448	251.13748	24.01481	97.77073	296.47360	63.13622	88.02815	71.87732	-73.00652	372.09830	-85.09358	-125.15904	95.64925	-96.58203	-59.50473	115.24655	-124.47365	-101.06002	140.60508	-48.20559	-82.32925	74.83201	191.02803	38.51491	939.04603	289.73076	13.28099	411.66413	19.68450	-127.53567	356.84801	263.66216	72.86764	358.94553	159.29569	-112.56814	665.09072	205.37296	49.92892	109.98459	75.19408	-192.83347	456.83507	207.57585	143.24474	470.13154	-30.40377	-194.47553	243.88031	254.46100	144.90522	251.19086	
405	4.040	69.16614	30.29873	969.19364	80.22143	14.82219	781.31112	193.59917	59.61049	624.68413	75.98102	35.42648	681.36354	69.34307	-32.96283	701.12207	255.28793	95.54556	85.57514	260.08835	24.69050	93.84282	306.23550	63.28036	84.40566	82.61859	-72.85905	369.80787	-81.12274	-125.74902	96.79732	-92.15087	-60.09213	116.66548	-119.09208	-101.60805	142.94042	-45.33757	-82.71110	74.54324	200.62944	40.57907	937.83534	298.30283	11.85168	407.24807	29.73261	-126.94363	355.46313	272.72827	72.39381	355.15685	170.50914	-112.36359	663.41033	214.63881	51.03941	105.78491	84.95132	-192.39328	455.50858	219.27762	142.86461	467.52428	-22.68250	-194.33419	243.92463	264.72897	144.88998	247.44511	
406	4.050	78.60268	33.06168	966.81014	91.82435	15.72487	779.35933	205.60332	59.94650	623.45963	87.97566	36.05974	680.13489	81.07863	-32.45275	699.45052	263.13623	96.41702	81.85859	266.91084	25.52218	90.26895	313.79557	63.57665	80.90614	94.27997	-72.51922	367.24674	-76.47165	-126.33200	98.01622	-87.09579	-60.68337	118.15714	-112.87152	-102.17823	145.39357	-42.05553	-83.06056	74.23129	210.29676	42.58152	936.84574	306.51393	10.90245	402.83121	40.69308	-126.13608	353.73310	281.20318	72.29483	351.42984	181.98563	-112.05243	661.55535	221.85882	52.31569	102.12463	95.39069	-191.77271	453.93599	230.48875	142.81159	465.01969	-13.96756	-194.07025	243.82925	273.69607	145.11944	243.85345	
407	4.060	88.09352	35.78583	964.50716	103.63550	16.45377	777.56192	217.44859	60.50867	622.53379	99.93703	36.51079	679.27504	92.92868	-32.16611	697.93904	268.98498	97.52120	78.53893	271.82242	26.59187	87.17285	319.37086	64.09886	77.65992	106.83335	-71.95164	364.44369	-71.08822	-126.87593	99.32673	-81.36555	-61.24392	119.73272	-105.76109	-102.73042	147.96317	-38.30552	-83.36050	73.93474	220.00896	44.49498	936.10179	314.34027	10.55646	398.62246	52.55612	-125.09921	351.66676	289.07001	72.65390	347.94786	193.66762	-111.61287	659.54987	227.24310	53.84974	99.10216	106.52014	-190.94775	452.12132	241.09156	143.16340	462.75049	-4.24227	-193.66042	243.59508	281.45552	145.69261	240.54496	
408	4.070	97.62210	38.41686	962.35053	115.57459	16.99052	775.98205	229.04252	61.31750	621.95922	111.77054	36.76447	678.82933	104.81144	-32.11536	696.63106	273.13045	98.92288	75.70598	275.09786	27.95985	84.64949	323.23662	64.89804	74.77564	120.23159	-71.12593	361.45078	-64.92703	-127.35225	100.75651	-74.91154	-61.74054	121.40689	-97.72620	-103.22388	150.64965	-34.02215	-83.59959	73.70318	229.74227	46.29248	935.62567	321.74360	10.90713	394.80187	65.29571	-123.82546	349.29636	296.30123	73.53220	344.86825	205.48966	-111.02340	657.43252	231.05835	55.71232	96.78066	118.33621	-189.89942	450.08939	250.97781	143.97946	460.83452	6.48930	-193.08506	243.23926	288.12385	146.68855	237.62321	
409	4.080	107.16829	40.90121	960.40852	127.55354	17.32647	774.68156	240.30161	62.38572	621.77683	123.38813	36.81924	678.82861	116.64441	-32.29675	695.56719	275.90311	100.65280	73.41530	277.04521	29.65433	82.75524	325.70199	65.99554	72.33107	134.41037	-70.02016	358.34323	-57.94984	-127.73871	102.33769	-67.68865	-62.14413	123.19586	-88.75111	-103.62065	153.45397	-29.12700	-83.77397	73.59455	239.47093	47.94842	935.43639	328.67592	12.00499	391.50525	78.87008	-122.31523	346.67851	302.86301	74.96071	342.30850	217.38078	-110.26460	655.25636	233.60145	57.93949	95.17989	130.82174	-188.61615	447.88796	260.06038	145.29234	459.36322	18.20225	-192.33048	242.79625	293.82599	148.15452	235.15712	
410	4.090	116.70912	43.18815	958.74825	139.48086	17.46451	773.71666	251.15640	63.71654	622.01198	134.71348	36.68940	679.28599	128.34850	-32.68847	694.78273	277.63493	102.70057	71.68284	277.98002	31.66490	81.50274	327.08391	67.37987	70.36817	149.29098	-68.62372	355.21717	-50.12558	-128.02109	104.10310	-59.65606	-62.43187	125.11462	-78.84011	-103.88857	156.37542	-23.52836	-83.88768	73.67078	249.16808	49.43965	935.54870	335.08572	13.84813	388.81411	93.22266	-120.57797	343.89298	308.72114	76.93445	340.33731	229.26732	-109.32125	653.08738	235.17161	60.52271	94.27337	143.94377	-187.09569	445.58771	268.28326	147.10133	458.39295	30.85199	-191.39074	242.31691	298.67984	150.09736	233.17648	
411	4.100	126.21971	45.23201	957.43157	151.26631	17.41985	773.13356	261.55548	65.30269	622.67174	145.68600	36.40537	680.19520	139.85165	-33.25088	694.30533	278.63003	105.01294	70.48562	278.20182	33.94086	80.86133	327.68294	69.00759	68.89282	164.78384	-66.93924	352.18517	-41.42988	-128.19361	106.08121	-50.77798	-62.58829	127.17333	-68.01704	-104.00321	159.40879	-17.12265	-83.95170	73.99196	258.80683	50.74640	935.97194	340.92515	16.37819	386.75281	108.28378	-118.63258	341.03918	313.84791	79.41006	338.97186	241.07588	-108.18416	651.00136	236.04543	63.40452	93.99182	157.65216	-185.34626	443.27977	275.62830	149.36979	457.94049	44.37650	-190.26880	241.86556	302.78343	152.47954	231.67304	
412	4.110	135.67440	46.99434	956.51108	162.82558	17.21973	772.96477	271.46759	67.12618	623.74378	156.26325	36.01186	681.53071	151.09188	-33.92892	694.15309	279.14288	107.49803	69.76816	277.97571	36.39509	80.76315	327.76422	70.80804	67.87896	180.79267	-64.98346	349.37003	-31.84447	-128.25764	108.29051	-41.02435	-62.60522	129.37361	-56.32297	-103.94865	162.54125	-9.79795	-83.98140	74.60984	268.36124	51.85312	936.70876	346.15715	19.48313	385.29321	123.97290	-116.50703	338.23057	318.22921	82.30731	338.18186	252.73639	-106.85166	649.07943	236.45864	66.48103	94.23263	171.87924	-183.38709	441.07067	282.11785	152.02681	457.98363	58.69955	-188.97666	241.51505	306.20789	155.22094	230.60670	
413	4.120	145.04803	48.44596	956.02651	174.08430	16.90173	773.22627	280.88206	69.15906	625.19691	166.42151	35.56402	683.24954	162.01933	-34.65674	694.33332	279.36704	110.03505	69.45313	277.52095	38.91279	81.11367	327.54537	72.69122	67.27595	197.21904	-62.78699	346.89703	-21.35650	-128.21918	110.73421	-30.37142	-62.48054	131.70514	-43.81216	-103.71688	165.74951	-1.43956	-83.99305	75.56135	277.80738	52.74913	937.75406	350.76191	23.00722	384.36587	140.20150	-114.23722	335.58739	321.87105	85.51499	337.89920	264.18500	-105.33037	647.40243	236.59652	69.61124	94.87384	186.54081	-181.24808	439.07519	287.81273	154.97345	458.46630	73.73453	-187.53460	241.34044	308.99766	158.20627	229.91550	
414	4.130	154.31716	49.56851	956.00183	184.98128	16.51105	773.91604	289.80733	71.36509	626.98342	176.15469	35.12195	685.29441	172.59745	-35.36388	694.84176	279.43430	112.48814	69.45392	277.00665	41.36427	81.80473	327.19182	74.55783	67.01755	213.96697	-60.39315	344.88576	-9.95800	-128.08543	113.39608	-18.80237	-62.21603	134.14348	-30.54675	-103.30609	168.99792	8.06265	-83.99971	76.86321	287.12423	53.42899	939.09414	354.74187	26.76707	383.87528	156.87644	-111.86525	333.22854	324.80442	88.90044	338.03132	275.36674	-103.63516	646.04489	236.59281	72.63233	95.78980	201.53857	-178.96875	437.40775	292.80606	158.09255	459.30757	89.38865	-185.96954	241.41194	311.17771	161.29718	229.52701	
415	4.140	163.46123	50.35554	956.44348	195.47058	16.09678	775.01392	298.26799	73.70216	629.04260	185.47177	34.74437	687.59781	182.80324	-35.98222	695.66256	279.42251	114.72263	69.68660	276.55346	43.62002	82.72772	326.81879	76.31024	67.03103	230.94721	-57.85599	343.44194	2.35412	-127.86128	116.23851	-6.30783	-61.81481	136.64941	-16.59097	-102.71818	172.23806	18.80581	-84.00739	78.50842	296.29444	53.89259	940.70624	358.12470	30.57163	383.71608	173.90364	-109.43737	331.26324	327.08759	92.32205	338.47565	286.23767	-101.78832	645.06887	236.53557	75.37896	96.86580	216.76411	-176.59651	436.17336	297.21360	161.26068	460.41242	105.56716	-184.31268	241.78805	312.76567	164.34748	229.36898	
416	4.150	172.46345	50.81285	957.33966	205.52245	15.70786	776.48273	306.30091	76.12510	631.30534	194.39342	34.48226	690.08633	192.62667	-36.45279	696.76866	279.36903	116.62129	70.07901	276.23943	45.56597	83.78484	326.49810	77.86315	67.24512	248.08085	-55.23774	342.65041	15.57769	-127.54619	119.20323	7.11344	-61.27886	139.17030	-2.00564	-101.95614	175.41013	30.86546	-84.01224	80.46556	305.30490	54.14497	942.55852	360.96383	34.24302	383.78725	191.19181	-107.00158	329.78355	328.80525	95.64301	339.13246	296.76643	-99.81788	644.51869	236.47732	77.70369	98.00896	232.10420	-174.18435	435.45896	301.16222	164.36054	461.68282	122.17729	-182.59681	242.50976	313.78543	167.21924	229.37755	
